<svg xmlns="http://www.w3.org/2000/svg" viewBox="0 0 76.5 15.69"><defs><style>.cls-1{fill:#fff;}.cls-2{fill:#f89833;}</style></defs><g id="Layer_2" data-name="Layer 2"><g id="Layer_1-2" data-name="Layer 1"><path class="cls-1" d="M0,3.35H5.66c2.29,0,3.84.75,3.84,3A2.62,2.62,0,0,1,7.87,8.85a2.92,2.92,0,0,1,2.21,3.05c0,2.44-2.08,3.48-4.25,3.48H0ZM2.64,8.22H5.33c.94,0,1.61-.42,1.61-1.43S6.06,5.41,5.12,5.41H2.64Zm0,5.11H5.48c1,0,1.95-.34,1.95-1.58S6.67,10,5.53,10H2.64Z"/><path class="cls-1" d="M14,3.35h9V5.58H16.66V8.16h5.83v2.05H16.66v2.95h6.48v2.22H14Z"/><path class="cls-1" d="M28.88,11.39c0,1.6,1.25,2.23,2.66,2.23.93,0,2.35-.27,2.35-1.5s-1.82-1.5-3.58-2-3.59-1.2-3.59-3.42c0-2.48,2.33-3.64,4.5-3.64C33.73,3.07,36,4.16,36,6.94H33.48c-.08-1.43-1.1-1.82-2.38-1.82-.84,0-1.82.36-1.82,1.37s.58,1.06,3.59,1.82c.9.2,3.58.79,3.58,3.5,0,2.21-1.72,3.86-5,3.86-2.66,0-5.17-1.31-5.12-4.28Z"/><path class="cls-1" d="M50.57,3.35h2.71l4.5,12H55l-.91-2.68h-4.5l-.94,2.68H46Zm-.26,7.38h3.12L51.91,6.32h0Z"/><path class="cls-1" d="M61,3.35h5.19c3.12,0,5.46,2,5.46,6,0,3.49-1.79,6.08-5.46,6.08H61Zm2.65,9.81H66c1.53,0,3-.94,3-3.6,0-2.43-.85-4-3.47-4H63.62Z"/><path class="cls-2" d="M76.5,14.38a1.29,1.29,0,1,0-1.29,1.29A1.29,1.29,0,0,0,76.5,14.38Z"/><path class="cls-1" d="M39.53,3.07h2.54V15.69H39.53Z"/><path class="cls-1" d="M39.66,0h2.28V2H39.66Z"/></g></g></svg>